<svg width="358" height="279" viewBox="0 0 358 279" fill="none" xmlns="http://www.w3.org/2000/svg">
<path d="M554.167 91.5248C636.167 233.554 587.504 415.166 445.475 497.167C303.446 579.167 121.834 530.504 39.8334 388.475C-42.1672 246.446 6.4956 64.834 148.525 -17.1666C290.554 -99.1672 472.166 -50.5044 554.167 91.5248Z" fill="#3D74FF"/>
<path d="M170.969 458.729C113.17 425.359 71.0409 370.315 53.8494 305.706C36.658 241.098 45.8124 172.217 79.2989 114.216C112.785 56.2159 167.861 13.8474 232.409 -3.56866C296.958 -20.9848 365.692 -12.0218 423.491 21.3484L369.494 114.874C336.413 95.775 297.074 90.6452 260.131 100.613C223.187 110.581 191.665 134.83 172.5 168.026C153.334 201.222 148.095 240.645 157.934 277.623C167.773 314.601 191.886 346.105 224.966 365.204L170.969 458.729Z" fill="#779DFF"/>
</svg>