<svg width="141" height="36" viewBox="0 0 141 36" fill="none" xmlns="http://www.w3.org/2000/svg">
<rect y="0.625122" width="34.6875" height="34.6875" rx="17.3437" fill="#1C5CFF"/>
<circle cx="17.3439" cy="12.1876" r="8.67187" fill="#779DFF"/>
<path d="M62.1817 13.8474H57.9769C57.9001 13.3034 57.7433 12.8202 57.5065 12.3977C57.2697 11.9689 56.9657 11.6041 56.5945 11.3033C56.2233 11.0025 55.7944 10.7721 55.308 10.6121C54.828 10.4521 54.3064 10.3721 53.7432 10.3721C52.7256 10.3721 51.8392 10.6249 51.084 11.1305C50.3288 11.6297 49.7432 12.3593 49.3272 13.3194C48.9112 14.273 48.7032 15.4314 48.7032 16.7946C48.7032 18.1962 48.9112 19.3738 49.3272 20.3274C49.7496 21.2811 50.3384 22.0011 51.0936 22.4875C51.8488 22.9739 52.7224 23.2171 53.7144 23.2171C54.2712 23.2171 54.7864 23.1435 55.26 22.9963C55.74 22.8491 56.1656 22.6347 56.5369 22.3531C56.9081 22.0651 57.2153 21.7163 57.4585 21.3067C57.7081 20.8971 57.8809 20.4298 57.9769 19.905L62.1817 19.9242C62.0729 20.8267 61.8009 21.6971 61.3657 22.5355C60.9369 23.3675 60.3577 24.1131 59.6281 24.7723C58.9049 25.4251 58.0409 25.9435 57.0361 26.3275C56.0376 26.7051 54.908 26.8939 53.6472 26.8939C51.8936 26.8939 50.3256 26.4971 48.9432 25.7035C47.5671 24.9099 46.4791 23.7611 45.6791 22.2571C44.8855 20.753 44.4887 18.9322 44.4887 16.7946C44.4887 14.6506 44.8919 12.8266 45.6983 11.3225C46.5047 9.81851 47.5991 8.6729 48.9816 7.88569C50.364 7.09208 51.9192 6.69528 53.6472 6.69528C54.7864 6.69528 55.8424 6.85528 56.8153 7.17528C57.7945 7.49529 58.6617 7.96249 59.4169 8.5769C60.1721 9.18491 60.7865 9.93052 61.2601 10.8137C61.7401 11.6969 62.0473 12.7081 62.1817 13.8474ZM71.7482 26.9131C70.257 26.9131 68.9674 26.5963 67.8794 25.9627C66.7978 25.3227 65.9626 24.4331 65.3738 23.2939C64.785 22.1483 64.4906 20.8203 64.4906 19.3098C64.4906 17.7866 64.785 16.4554 65.3738 15.3162C65.9626 14.1706 66.7978 13.281 67.8794 12.6473C68.9674 12.0073 70.257 11.6873 71.7482 11.6873C73.2395 11.6873 74.5259 12.0073 75.6075 12.6473C76.6955 13.281 77.5339 14.1706 78.1227 15.3162C78.7115 16.4554 79.0059 17.7866 79.0059 19.3098C79.0059 20.8203 78.7115 22.1483 78.1227 23.2939C77.5339 24.4331 76.6955 25.3227 75.6075 25.9627C74.5259 26.5963 73.2395 26.9131 71.7482 26.9131ZM71.7674 23.7451C72.4459 23.7451 73.0123 23.5531 73.4667 23.1691C73.9211 22.7787 74.2635 22.2475 74.4939 21.5755C74.7307 20.9035 74.8491 20.1386 74.8491 19.281C74.8491 18.4234 74.7307 17.6586 74.4939 16.9866C74.2635 16.3146 73.9211 15.7834 73.4667 15.393C73.0123 15.0026 72.4459 14.8074 71.7674 14.8074C71.0826 14.8074 70.5066 15.0026 70.0394 15.393C69.5786 15.7834 69.2298 16.3146 68.993 16.9866C68.7626 17.6586 68.6474 18.4234 68.6474 19.281C68.6474 20.1386 68.7626 20.9035 68.993 21.5755C69.2298 22.2475 69.5786 22.7787 70.0394 23.1691C70.5066 23.5531 71.0826 23.7451 71.7674 23.7451ZM81.6652 26.6251V11.8793H85.63V14.4522H85.7836C86.0524 13.537 86.5036 12.8458 87.1372 12.3785C87.7708 11.9049 88.5004 11.6681 89.3261 11.6681C89.5309 11.6681 89.7517 11.6809 89.9885 11.7065C90.2253 11.7321 90.4333 11.7673 90.6125 11.8121V15.441C90.4205 15.3834 90.1549 15.3322 89.8157 15.2874C89.4765 15.2426 89.1661 15.2202 88.8845 15.2202C88.2828 15.2202 87.7452 15.3514 87.2716 15.6138C86.8044 15.8698 86.4332 16.2282 86.158 16.689C85.8892 17.1498 85.7548 17.681 85.7548 18.2826V26.6251H81.6652ZM96.5093 26.9035C95.5685 26.9035 94.7301 26.7403 93.9941 26.4139C93.2581 26.0811 92.6757 25.5915 92.2469 24.9451C91.8245 24.2923 91.6133 23.4795 91.6133 22.5067C91.6133 21.6875 91.7637 20.9995 92.0645 20.4426C92.3653 19.8858 92.7749 19.4378 93.2933 19.0986C93.8117 18.7594 94.4005 18.5034 95.0597 18.3306C95.7253 18.1578 96.4229 18.0362 97.1526 17.9658C98.0102 17.8762 98.7014 17.793 99.2262 17.7162C99.751 17.633 100.132 17.5114 100.369 17.3514C100.605 17.1914 100.724 16.9546 100.724 16.641V16.5834C100.724 15.9754 100.532 15.505 100.148 15.1722C99.7702 14.8394 99.2326 14.673 98.535 14.673C97.799 14.673 97.2134 14.8362 96.7781 15.1626C96.3429 15.4826 96.0549 15.8858 95.9141 16.3722L92.1317 16.065C92.3237 15.169 92.7013 14.3946 93.2645 13.7418C93.8277 13.0826 94.5541 12.5769 95.4437 12.2249C96.3397 11.8665 97.3766 11.6873 98.5542 11.6873C99.3734 11.6873 100.157 11.7833 100.906 11.9753C101.661 12.1673 102.33 12.4649 102.913 12.8682C103.501 13.2714 103.965 13.7898 104.305 14.4234C104.644 15.0506 104.813 15.8026 104.813 16.6794V26.6251H100.935V24.5803H100.82C100.583 25.0411 100.266 25.4475 99.8694 25.7995C99.4726 26.1451 98.9958 26.4171 98.439 26.6155C97.8822 26.8075 97.239 26.9035 96.5093 26.9035ZM97.6806 24.0811C98.2822 24.0811 98.8134 23.9627 99.2742 23.7259C99.735 23.4827 100.097 23.1563 100.359 22.7467C100.621 22.3371 100.753 21.8731 100.753 21.3547V19.7898C100.625 19.873 100.449 19.9498 100.225 20.0202C100.007 20.0842 99.7606 20.145 99.4854 20.2026C99.2102 20.2538 98.935 20.3018 98.6598 20.3466C98.3846 20.385 98.135 20.4202 97.911 20.4522C97.431 20.5226 97.0118 20.6346 96.6533 20.7882C96.2949 20.9419 96.0165 21.1499 95.8181 21.4123C95.6197 21.6683 95.5205 21.9883 95.5205 22.3723C95.5205 22.9291 95.7221 23.3547 96.1253 23.6491C96.5349 23.9371 97.0534 24.0811 97.6806 24.0811ZM112.076 18.1002V26.6251H107.986V11.8793H111.884V14.481H112.057C112.383 13.6234 112.93 12.945 113.698 12.4457C114.466 11.9401 115.398 11.6873 116.492 11.6873C117.516 11.6873 118.409 11.9113 119.17 12.3593C119.932 12.8074 120.524 13.4474 120.946 14.2794C121.369 15.105 121.58 16.0906 121.58 17.2362V26.6251H117.49V17.9658C117.497 17.0634 117.266 16.3594 116.799 15.8538C116.332 15.3418 115.689 15.0858 114.87 15.0858C114.319 15.0858 113.833 15.2042 113.41 15.441C112.994 15.6778 112.668 16.0234 112.431 16.4778C112.201 16.9258 112.082 17.4666 112.076 18.1002ZM134.259 20.3466V11.8793H138.349V26.6251H134.423V23.9467H134.269C133.936 24.8107 133.383 25.5051 132.608 26.0299C131.84 26.5547 130.903 26.8171 129.795 26.8171C128.81 26.8171 127.943 26.5931 127.194 26.1451C126.445 25.6971 125.859 25.0603 125.437 24.2347C125.021 23.4091 124.81 22.4203 124.803 21.2683V11.8793H128.893V20.5386C128.899 21.4091 129.133 22.0971 129.594 22.6027C130.055 23.1083 130.672 23.3611 131.447 23.3611C131.939 23.3611 132.4 23.2491 132.829 23.0251C133.258 22.7947 133.603 22.4555 133.866 22.0075C134.135 21.5595 134.266 21.0059 134.259 20.3466Z" fill="#1E1E1E"/>
</svg>
